<svg width="188" height="168" viewBox="0 0 188 168" fill="none" xmlns="http://www.w3.org/2000/svg">
<rect x="44" y="11" width="97" height="17" fill="black"/>
<rect x="10" y="36" width="166" height="50" fill="#FF6600"/>
<rect x="10" y="92" width="166" height="57" fill="#003366"/>
<path d="M61.3273 125V108.273H67.2897C68.5911 108.273 69.6692 108.51 70.5241 108.983C71.3789 109.457 72.0187 110.105 72.4434 110.927C72.8682 111.744 73.0805 112.664 73.0805 113.688C73.0805 114.717 72.8654 115.643 72.4353 116.465C72.0106 117.282 71.368 117.93 70.5077 118.409C69.6528 118.882 68.5774 119.119 67.2815 119.119H63.1814V116.979H67.0528C67.875 116.979 68.542 116.838 69.0539 116.555C69.5657 116.266 69.9414 115.874 70.181 115.379C70.4206 114.883 70.5404 114.319 70.5404 113.688C70.5404 113.056 70.4206 112.495 70.181 112.005C69.9414 111.515 69.563 111.131 69.0457 110.854C68.5339 110.576 67.8587 110.437 67.0201 110.437H63.8511V125H61.3273ZM77.7793 108.273V125H75.3372V108.273H77.7793ZM84.2097 125.278C83.4147 125.278 82.6959 125.131 82.0534 124.837C81.4109 124.537 80.9018 124.104 80.5261 123.538C80.1558 122.972 79.9707 122.277 79.9707 121.455C79.9707 120.747 80.1068 120.165 80.3791 119.707C80.6513 119.25 81.0189 118.888 81.4817 118.621C81.9445 118.354 82.4618 118.153 83.0335 118.017C83.6053 117.881 84.1879 117.777 84.7814 117.706C85.5328 117.619 86.1427 117.548 86.611 117.494C87.0792 117.434 87.4195 117.339 87.6319 117.208C87.8443 117.077 87.9504 116.865 87.9504 116.571V116.514C87.9504 115.801 87.749 115.248 87.346 114.856C86.9485 114.464 86.355 114.268 85.5655 114.268C84.7433 114.268 84.0953 114.45 83.6216 114.815C83.1533 115.174 82.8293 115.575 82.6497 116.016L80.3546 115.493C80.6268 114.731 81.0243 114.115 81.547 113.647C82.0752 113.173 82.6823 112.83 83.3684 112.618C84.0545 112.4 84.776 112.291 85.5328 112.291C86.0338 112.291 86.5647 112.351 87.1255 112.471C87.6918 112.585 88.22 112.798 88.71 113.108C89.2055 113.418 89.6112 113.862 89.927 114.439C90.2428 115.011 90.4007 115.754 90.4007 116.669V125H88.0158V123.285H87.9178C87.7599 123.601 87.523 123.911 87.2072 124.216C86.8914 124.521 86.4857 124.774 85.9902 124.975C85.4947 125.177 84.9012 125.278 84.2097 125.278ZM84.7406 123.317C85.4158 123.317 85.9929 123.184 86.4721 122.917C86.9567 122.65 87.3243 122.302 87.5747 121.872C87.8307 121.436 87.9586 120.971 87.9586 120.475V118.858C87.8715 118.945 87.7027 119.027 87.4522 119.103C87.2072 119.174 86.9268 119.236 86.611 119.291C86.2951 119.34 85.9875 119.386 85.688 119.43C85.3885 119.468 85.1381 119.5 84.9366 119.528C84.4629 119.588 84.03 119.688 83.6379 119.83C83.2513 119.971 82.941 120.176 82.7068 120.442C82.4781 120.704 82.3638 121.052 82.3638 121.488C82.3638 122.092 82.587 122.55 83.0335 122.86C83.48 123.165 84.049 123.317 84.7406 123.317ZM99.0037 112.455V114.415H92.151V112.455H99.0037ZM93.9887 109.449H96.4309V121.316C96.4309 121.79 96.5016 122.147 96.6432 122.386C96.7848 122.621 96.9672 122.781 97.1904 122.868C97.4191 122.95 97.6669 122.991 97.9337 122.991C98.1297 122.991 98.3012 122.977 98.4483 122.95C98.5953 122.923 98.7096 122.901 98.7913 122.885L99.2323 124.902C99.0908 124.956 98.8893 125.011 98.6279 125.065C98.3666 125.125 98.0399 125.158 97.6478 125.163C97.0053 125.174 96.4064 125.06 95.851 124.82C95.2956 124.581 94.8463 124.21 94.5033 123.71C94.1603 123.209 93.9887 122.58 93.9887 121.823V109.449ZM106.471 125.253C105.235 125.253 104.171 124.989 103.278 124.461C102.39 123.927 101.704 123.179 101.22 122.215C100.74 121.246 100.501 120.11 100.501 118.809C100.501 117.524 100.74 116.391 101.22 115.411C101.704 114.431 102.379 113.666 103.245 113.116C104.116 112.566 105.135 112.291 106.3 112.291C107.008 112.291 107.694 112.408 108.358 112.642C109.022 112.877 109.619 113.244 110.147 113.745C110.675 114.246 111.091 114.897 111.396 115.697C111.701 116.492 111.854 117.459 111.854 118.597V119.462H101.881V117.633H109.461C109.461 116.99 109.33 116.421 109.069 115.926C108.807 115.425 108.44 115.03 107.966 114.741C107.498 114.453 106.948 114.309 106.316 114.309C105.63 114.309 105.031 114.477 104.519 114.815C104.013 115.147 103.621 115.583 103.343 116.122C103.071 116.655 102.935 117.235 102.935 117.862V119.291C102.935 120.129 103.082 120.843 103.376 121.431C103.675 122.019 104.092 122.468 104.625 122.778C105.159 123.083 105.782 123.236 106.496 123.236C106.959 123.236 107.381 123.17 107.762 123.04C108.143 122.904 108.472 122.702 108.75 122.435C109.028 122.169 109.24 121.839 109.387 121.447L111.699 121.864C111.513 122.544 111.181 123.141 110.702 123.652C110.228 124.159 109.632 124.554 108.913 124.837C108.2 125.114 107.386 125.253 106.471 125.253ZM117.708 125.278C116.913 125.278 116.195 125.131 115.552 124.837C114.91 124.537 114.4 124.104 114.025 123.538C113.654 122.972 113.469 122.277 113.469 121.455C113.469 120.747 113.605 120.165 113.878 119.707C114.15 119.25 114.517 118.888 114.98 118.621C115.443 118.354 115.96 118.153 116.532 118.017C117.104 117.881 117.686 117.777 118.28 117.706C119.031 117.619 119.641 117.548 120.11 117.494C120.578 117.434 120.918 117.339 121.131 117.208C121.343 117.077 121.449 116.865 121.449 116.571V116.514C121.449 115.801 121.248 115.248 120.845 114.856C120.447 114.464 119.854 114.268 119.064 114.268C118.242 114.268 117.594 114.45 117.12 114.815C116.652 115.174 116.328 115.575 116.148 116.016L113.853 115.493C114.125 114.731 114.523 114.115 115.046 113.647C115.574 113.173 116.181 112.83 116.867 112.618C117.553 112.4 118.275 112.291 119.031 112.291C119.532 112.291 120.063 112.351 120.624 112.471C121.19 112.585 121.719 112.798 122.209 113.108C122.704 113.418 123.11 113.862 123.426 114.439C123.741 115.011 123.899 115.754 123.899 116.669V125H121.514V123.285H121.416C121.258 123.601 121.022 123.911 120.706 124.216C120.39 124.521 119.984 124.774 119.489 124.975C118.993 125.177 118.4 125.278 117.708 125.278ZM118.239 123.317C118.914 123.317 119.492 123.184 119.971 122.917C120.455 122.65 120.823 122.302 121.073 121.872C121.329 121.436 121.457 120.971 121.457 120.475V118.858C121.37 118.945 121.201 119.027 120.951 119.103C120.706 119.174 120.425 119.236 120.11 119.291C119.794 119.34 119.486 119.386 119.187 119.43C118.887 119.468 118.637 119.5 118.435 119.528C117.961 119.588 117.529 119.688 117.137 119.83C116.75 119.971 116.44 120.176 116.205 120.442C115.977 120.704 115.862 121.052 115.862 121.488C115.862 122.092 116.086 122.55 116.532 122.86C116.979 123.165 117.548 123.317 118.239 123.317Z" fill="white"/>
<path d="M62.4834 25V14.8182H68.8669V16.1406H64.0196V19.2429H68.5338V20.5604H64.0196V23.6776H68.9266V25H62.4834ZM76.214 19.228L74.8666 19.4666C74.8103 19.2943 74.7208 19.1302 74.5982 18.9744C74.4789 18.8187 74.3165 18.6911 74.111 18.5916C73.9055 18.4922 73.6486 18.4425 73.3404 18.4425C72.9194 18.4425 72.5681 18.5369 72.2864 18.7259C72.0047 18.9115 71.8638 19.1518 71.8638 19.4467C71.8638 19.7019 71.9583 19.9074 72.1472 20.0632C72.3361 20.219 72.641 20.3466 73.062 20.446L74.275 20.7244C74.9777 20.8868 75.5014 21.1371 75.8461 21.4751C76.1908 21.8132 76.3631 22.2524 76.3631 22.7926C76.3631 23.25 76.2305 23.6577 75.9654 24.0156C75.7035 24.3703 75.3373 24.6487 74.8666 24.8509C74.3993 25.053 73.8574 25.1541 73.2409 25.1541C72.3858 25.1541 71.6881 24.9718 71.1479 24.6072C70.6077 24.2393 70.2762 23.7173 70.1536 23.0412L71.5904 22.8224C71.6799 23.197 71.8638 23.4804 72.1422 23.6726C72.4206 23.8615 72.7836 23.956 73.231 23.956C73.7182 23.956 74.1077 23.8549 74.3993 23.6527C74.691 23.4472 74.8368 23.197 74.8368 22.902C74.8368 22.6634 74.7473 22.4628 74.5684 22.3004C74.3927 22.138 74.1226 22.0154 73.758 21.9325L72.4654 21.6491C71.7528 21.4867 71.2258 21.2282 70.8844 20.8736C70.5463 20.5189 70.3773 20.0698 70.3773 19.5263C70.3773 19.0755 70.5033 18.6811 70.7551 18.343C71.007 18.005 71.355 17.7415 71.7992 17.5526C72.2433 17.3603 72.7521 17.2642 73.3255 17.2642C74.1507 17.2642 74.8004 17.4432 75.2743 17.8011C75.7483 18.1558 76.0615 18.6314 76.214 19.228ZM80.9061 25.1541C80.167 25.1541 79.5307 24.9867 78.997 24.652C78.4667 24.3139 78.0591 23.8482 77.774 23.255C77.489 22.6617 77.3465 21.9822 77.3465 21.2166C77.3465 20.4411 77.4923 19.7566 77.784 19.1634C78.0756 18.5668 78.4866 18.1011 79.0169 17.7663C79.5472 17.4316 80.172 17.2642 80.8912 17.2642C81.4712 17.2642 81.9883 17.3719 82.4423 17.5874C82.8964 17.7995 83.2627 18.0978 83.5411 18.4822C83.8228 18.8667 83.9902 19.3158 84.0432 19.8295H82.5965C82.5169 19.4716 82.3346 19.1634 82.0496 18.9048C81.7679 18.6463 81.39 18.517 80.9161 18.517C80.5018 18.517 80.1388 18.6264 79.8273 18.8452C79.5191 19.0606 79.2788 19.3688 79.1064 19.7699C78.9341 20.1676 78.8479 20.6383 78.8479 21.1818C78.8479 21.7386 78.9324 22.2192 79.1014 22.6236C79.2705 23.0279 79.5091 23.3411 79.8173 23.5632C80.1289 23.7853 80.4951 23.8963 80.9161 23.8963C81.1978 23.8963 81.453 23.8449 81.6817 23.7422C81.9137 23.6361 82.1076 23.4853 82.2634 23.2898C82.4225 23.0942 82.5335 22.8589 82.5965 22.5838H84.0432C83.9902 23.0777 83.8294 23.5185 83.561 23.9062C83.2925 24.294 82.9329 24.599 82.4821 24.821C82.0347 25.0431 81.5093 25.1541 80.9061 25.1541ZM88.6161 25.1541C87.8637 25.1541 87.2157 24.9934 86.6722 24.6719C86.1319 24.3471 85.7143 23.8913 85.4193 23.3047C85.1277 22.7147 84.9818 22.0237 84.9818 21.2315C84.9818 20.4493 85.1277 19.7599 85.4193 19.1634C85.7143 18.5668 86.1253 18.1011 86.6523 17.7663C87.1826 17.4316 87.8024 17.2642 88.5117 17.2642C88.9425 17.2642 89.3601 17.3355 89.7645 17.478C90.1689 17.6205 90.5318 17.8442 90.8533 18.1491C91.1748 18.4541 91.4283 18.8501 91.6139 19.3374C91.7995 19.8213 91.8923 20.4096 91.8923 21.1023V21.6293H85.822V20.5156H90.4357C90.4357 20.1245 90.3561 19.7782 90.197 19.4766C90.0379 19.1716 89.8142 18.9313 89.5259 18.7557C89.2408 18.58 88.9061 18.4922 88.5216 18.4922C88.104 18.4922 87.7394 18.5949 87.4279 18.8004C87.1196 19.0026 86.881 19.2678 86.7119 19.5959C86.5462 19.9207 86.4634 20.2737 86.4634 20.6548V21.5249C86.4634 22.0353 86.5529 22.4695 86.7318 22.8274C86.9141 23.1854 87.1677 23.4588 87.4925 23.6477C87.8173 23.8333 88.1968 23.9261 88.631 23.9261C88.9127 23.9261 89.1696 23.8864 89.4016 23.8068C89.6336 23.724 89.8341 23.6013 90.0031 23.4389C90.1722 23.2765 90.3014 23.076 90.3909 22.8374L91.7979 23.0909C91.6852 23.5052 91.483 23.8681 91.1913 24.1797C90.903 24.4879 90.5401 24.7282 90.1026 24.9006C89.6684 25.0696 89.1729 25.1541 88.6161 25.1541ZM94.7202 20.4659V25H93.2337V17.3636H94.6605V18.6065H94.755C94.9306 18.2022 95.2057 17.8774 95.5803 17.6321C95.9581 17.3868 96.4337 17.2642 97.0071 17.2642C97.5275 17.2642 97.9832 17.3736 98.3743 17.5923C98.7654 17.8078 99.0687 18.1293 99.2841 18.5568C99.4995 18.9844 99.6072 19.513 99.6072 20.1428V25H98.1207V20.3217C98.1207 19.7682 97.9766 19.3357 97.6882 19.0241C97.3999 18.7093 97.0038 18.5518 96.5 18.5518C96.1553 18.5518 95.8487 18.6264 95.5803 18.7756C95.3151 18.9247 95.1046 19.1435 94.9489 19.4318C94.7964 19.7169 94.7202 20.0616 94.7202 20.4659ZM103.515 25.169C103.031 25.169 102.594 25.0795 102.203 24.9006C101.812 24.7183 101.502 24.4548 101.273 24.1101C101.048 23.7654 100.935 23.3428 100.935 22.8423C100.935 22.4115 101.018 22.0568 101.183 21.7784C101.349 21.5 101.573 21.2796 101.855 21.1172C102.136 20.9548 102.451 20.8321 102.799 20.7493C103.147 20.6664 103.502 20.6035 103.863 20.5604C104.321 20.5073 104.692 20.4643 104.977 20.4311C105.262 20.3946 105.469 20.3366 105.598 20.2571C105.728 20.1776 105.792 20.0483 105.792 19.8693V19.8345C105.792 19.4003 105.67 19.0639 105.424 18.8253C105.182 18.5866 104.821 18.4673 104.34 18.4673C103.84 18.4673 103.446 18.5784 103.157 18.8004C102.872 19.0192 102.675 19.2628 102.566 19.5312L101.169 19.2131C101.334 18.7491 101.576 18.3745 101.894 18.0895C102.216 17.8011 102.585 17.5923 103.003 17.4631C103.421 17.3305 103.86 17.2642 104.321 17.2642C104.625 17.2642 104.949 17.3007 105.29 17.3736C105.635 17.4432 105.956 17.5724 106.255 17.7614C106.556 17.9503 106.803 18.2204 106.995 18.5717C107.188 18.9197 107.284 19.3722 107.284 19.929V25H105.832V23.956H105.772C105.676 24.1482 105.532 24.3371 105.34 24.5227C105.147 24.7083 104.901 24.8625 104.599 24.9851C104.297 25.1077 103.936 25.169 103.515 25.169ZM103.838 23.9759C104.249 23.9759 104.601 23.8946 104.892 23.7322C105.187 23.5698 105.411 23.3577 105.563 23.0959C105.719 22.8307 105.797 22.5473 105.797 22.2457V21.2614C105.744 21.3144 105.641 21.3641 105.489 21.4105C105.34 21.4536 105.169 21.4917 104.977 21.5249C104.785 21.5547 104.597 21.5829 104.415 21.6094C104.233 21.6326 104.08 21.6525 103.958 21.669C103.669 21.7055 103.406 21.7668 103.167 21.853C102.932 21.9392 102.743 22.0634 102.6 22.2259C102.461 22.3849 102.392 22.5971 102.392 22.8622C102.392 23.2301 102.527 23.5085 102.799 23.6974C103.071 23.883 103.417 23.9759 103.838 23.9759ZM108.956 25V17.3636H110.392V18.5767H110.472C110.611 18.1657 110.856 17.8426 111.208 17.6072C111.562 17.3686 111.963 17.2493 112.411 17.2493C112.504 17.2493 112.613 17.2526 112.739 17.2592C112.868 17.2659 112.969 17.2741 113.042 17.2841V18.706C112.983 18.6894 112.876 18.6712 112.724 18.6513C112.572 18.6281 112.419 18.6165 112.267 18.6165C111.915 18.6165 111.602 18.6911 111.327 18.8402C111.055 18.986 110.84 19.1899 110.681 19.4517C110.522 19.7102 110.442 20.0052 110.442 20.3366V25H108.956ZM114.021 25V17.3636H115.507V25H114.021ZM114.771 16.1854C114.513 16.1854 114.291 16.0992 114.105 15.9268C113.923 15.7512 113.832 15.5424 113.832 15.3004C113.832 15.0552 113.923 14.8464 114.105 14.674C114.291 14.4983 114.513 14.4105 114.771 14.4105C115.03 14.4105 115.25 14.4983 115.433 14.674C115.618 14.8464 115.711 15.0552 115.711 15.3004C115.711 15.5424 115.618 15.7512 115.433 15.9268C115.25 16.0992 115.03 16.1854 114.771 16.1854ZM120.416 25.1541C119.7 25.1541 119.075 24.9901 118.541 24.6619C118.008 24.3338 117.593 23.8748 117.298 23.2848C117.003 22.6948 116.856 22.0054 116.856 21.2166C116.856 20.4245 117.003 19.7318 117.298 19.1385C117.593 18.5452 118.008 18.0845 118.541 17.7564C119.075 17.4283 119.7 17.2642 120.416 17.2642C121.131 17.2642 121.756 17.4283 122.29 17.7564C122.823 18.0845 123.238 18.5452 123.533 19.1385C123.828 19.7318 123.975 20.4245 123.975 21.2166C123.975 22.0054 123.828 22.6948 123.533 23.2848C123.238 23.8748 122.823 24.3338 122.29 24.6619C121.756 24.9901 121.131 25.1541 120.416 25.1541ZM120.421 23.9062C120.885 23.9062 121.269 23.7836 121.574 23.5384C121.879 23.2931 122.104 22.9666 122.25 22.5589C122.399 22.1513 122.474 21.7022 122.474 21.2116C122.474 20.7244 122.399 20.277 122.25 19.8693C122.104 19.4583 121.879 19.1286 121.574 18.88C121.269 18.6314 120.885 18.5071 120.421 18.5071C119.953 18.5071 119.565 18.6314 119.257 18.88C118.952 19.1286 118.725 19.4583 118.576 19.8693C118.43 20.277 118.357 20.7244 118.357 21.2116C118.357 21.7022 118.43 22.1513 118.576 22.5589C118.725 22.9666 118.952 23.2931 119.257 23.5384C119.565 23.7836 119.953 23.9062 120.421 23.9062Z" fill="white"/>
<path d="M69.7308 57.7124H67.1825C67.0845 57.1678 66.9021 56.6887 66.6353 56.2749C66.3685 55.861 66.0418 55.5098 65.6552 55.2212C65.2686 54.9326 64.8357 54.7148 64.3565 54.5678C63.8828 54.4208 63.3791 54.3473 62.8455 54.3473C61.8817 54.3473 61.0187 54.5896 60.2564 55.0742C59.4995 55.5588 58.9006 56.2694 58.4595 57.206C58.0239 58.1425 57.8061 59.286 57.8061 60.6364C57.8061 61.9976 58.0239 63.1465 58.4595 64.0831C58.9006 65.0196 59.5022 65.7275 60.2646 66.2067C61.0269 66.6858 61.8845 66.9254 62.8374 66.9254C63.3655 66.9254 63.8665 66.8546 64.3402 66.7131C64.8194 66.5661 65.2522 66.351 65.6388 66.0678C66.0254 65.7847 66.3522 65.4389 66.619 65.0305C66.8912 64.6167 67.0791 64.143 67.1825 63.6094L69.7308 63.6175C69.5947 64.4397 69.3306 65.1966 68.9386 65.8881C68.552 66.5742 68.0537 67.1677 67.4439 67.6687C66.8395 68.1642 66.148 68.5481 65.3693 68.8203C64.5907 69.0926 63.7412 69.2287 62.821 69.2287C61.3726 69.2287 60.0821 68.8857 58.9496 68.1996C57.817 67.508 56.924 66.5198 56.2706 65.2347C55.6226 63.9497 55.2987 62.4169 55.2987 60.6364C55.2987 58.8504 55.6254 57.3176 56.2788 56.038C56.9322 54.753 57.8252 53.7674 58.9577 53.0813C60.0903 52.3898 61.3781 52.044 62.821 52.044C63.7086 52.044 64.5362 52.172 65.304 52.4279C66.0772 52.6784 66.7714 53.0486 67.3867 53.5387C68.002 54.0233 68.5111 54.6168 68.9141 55.3192C69.317 56.0162 69.5893 56.8139 69.7308 57.7124ZM75.6997 69.2777C74.9047 69.2777 74.186 69.1307 73.5434 68.8366C72.9009 68.5372 72.3918 68.1043 72.0161 67.538C71.6458 66.9717 71.4607 66.2775 71.4607 65.4553C71.4607 64.7474 71.5968 64.1648 71.8691 63.7074C72.1413 63.25 72.5089 62.8879 72.9717 62.6211C73.4345 62.3543 73.9518 62.1528 74.5236 62.0167C75.0953 61.8806 75.6779 61.7771 76.2714 61.7063C77.0229 61.6192 77.6327 61.5484 78.101 61.494C78.5693 61.4341 78.9096 61.3388 79.1219 61.2081C79.3343 61.0774 79.4405 60.8651 79.4405 60.571V60.5138C79.4405 59.8005 79.239 59.2479 78.8361 58.8558C78.4386 58.4638 77.8451 58.2678 77.0555 58.2678C76.2333 58.2678 75.5854 58.4502 75.1116 58.815C74.6434 59.1744 74.3194 59.5746 74.1397 60.0156L71.8446 59.4929C72.1168 58.7306 72.5143 58.1153 73.0371 57.647C73.5652 57.1733 74.1724 56.8303 74.8584 56.6179C75.5445 56.4001 76.266 56.2912 77.0229 56.2912C77.5238 56.2912 78.0547 56.3511 78.6155 56.4709C79.1818 56.5852 79.71 56.7976 80.2001 57.108C80.6956 57.4183 81.1012 57.8621 81.417 58.4393C81.7328 59.011 81.8908 59.7543 81.8908 60.669V69H79.5058V67.2848H79.4078C79.2499 67.6006 79.013 67.911 78.6972 68.2159C78.3814 68.5208 77.9757 68.774 77.4802 68.9755C76.9847 69.177 76.3912 69.2777 75.6997 69.2777ZM76.2306 67.3175C76.9058 67.3175 77.483 67.1841 77.9621 66.9173C78.4467 66.6504 78.8143 66.302 79.0648 65.8718C79.3207 65.4362 79.4486 64.9706 79.4486 64.4751V62.858C79.3615 62.9451 79.1927 63.0268 78.9422 63.103C78.6972 63.1738 78.4168 63.2364 78.101 63.2908C77.7852 63.3398 77.4775 63.3861 77.178 63.4297C76.8786 63.4678 76.6281 63.5005 76.4266 63.5277C75.9529 63.5876 75.52 63.6883 75.128 63.8299C74.7414 63.9715 74.431 64.1757 74.1969 64.4425C73.9682 64.7038 73.8538 65.0523 73.8538 65.4879C73.8538 66.0923 74.0771 66.5497 74.5236 66.8601C74.9701 67.165 75.5391 67.3175 76.2306 67.3175ZM84.6375 69V56.4545H86.9816V58.4964H87.1368C87.3982 57.8049 87.8256 57.2659 88.4191 56.8793C89.0126 56.4872 89.7232 56.2912 90.5509 56.2912C91.3894 56.2912 92.0918 56.4872 92.6581 56.8793C93.2298 57.2713 93.6518 57.8104 93.9241 58.4964H94.0548C94.3542 57.8267 94.8307 57.2931 95.4841 56.8956C96.1375 56.4927 96.9161 56.2912 97.82 56.2912C98.9581 56.2912 99.8864 56.6478 100.605 57.3612C101.329 58.0745 101.691 59.1499 101.691 60.5874V69H99.2494V60.8161C99.2494 59.9666 99.0179 59.3513 98.5551 58.9702C98.0923 58.589 97.5396 58.3984 96.8971 58.3984C96.1021 58.3984 95.4841 58.6435 95.043 59.1335C94.602 59.6181 94.3815 60.2416 94.3815 61.0039V69H91.9475V60.6609C91.9475 59.9802 91.7352 59.433 91.3104 59.0192C90.8857 58.6054 90.3331 58.3984 89.6524 58.3984C89.1896 58.3984 88.7621 58.521 88.3701 58.766C87.9835 59.0056 87.6704 59.3404 87.4308 59.7706C87.1967 60.2008 87.0796 60.699 87.0796 61.2653V69H84.6375ZM104.459 73.7045V56.4545H106.844V58.4883H107.048C107.189 58.2269 107.394 57.9247 107.66 57.5817C107.927 57.2386 108.297 56.9392 108.771 56.6832C109.245 56.4219 109.871 56.2912 110.65 56.2912C111.662 56.2912 112.566 56.5471 113.361 57.0589C114.156 57.5708 114.78 58.3086 115.232 59.2724C115.689 60.2362 115.918 61.396 115.918 62.7518C115.918 64.1076 115.692 65.2701 115.24 66.2393C114.788 67.2031 114.167 67.9464 113.378 68.4691C112.588 68.9864 111.687 69.245 110.674 69.245C109.912 69.245 109.288 69.1171 108.804 68.8612C108.325 68.6052 107.949 68.3058 107.677 67.9627C107.404 67.6197 107.195 67.3147 107.048 67.0479H106.901V73.7045H104.459ZM106.852 62.7273C106.852 63.6094 106.98 64.3826 107.236 65.0469C107.492 65.7112 107.862 66.2312 108.346 66.6069C108.831 66.9772 109.425 67.1623 110.127 67.1623C110.857 67.1623 111.466 66.969 111.957 66.5824C112.447 66.1903 112.817 65.6594 113.067 64.9897C113.323 64.32 113.451 63.5658 113.451 62.7273C113.451 61.8996 113.326 61.1564 113.075 60.4975C112.83 59.8387 112.46 59.3187 111.965 58.9375C111.475 58.5563 110.862 58.3658 110.127 58.3658C109.419 58.3658 108.82 58.5482 108.33 58.913C107.845 59.2778 107.478 59.7869 107.227 60.4403C106.977 61.0937 106.852 61.8561 106.852 62.7273ZM123.432 69.2532C122.256 69.2532 121.23 68.9837 120.353 68.4446C119.477 67.9055 118.796 67.1514 118.311 66.1822C117.827 65.2129 117.584 64.0804 117.584 62.7844C117.584 61.4831 117.827 60.3451 118.311 59.3704C118.796 58.3957 119.477 57.6388 120.353 57.0998C121.23 56.5607 122.256 56.2912 123.432 56.2912C124.609 56.2912 125.635 56.5607 126.512 57.0998C127.388 57.6388 128.069 58.3957 128.554 59.3704C129.038 60.3451 129.28 61.4831 129.28 62.7844C129.28 64.0804 129.038 65.2129 128.554 66.1822C128.069 67.1514 127.388 67.9055 126.512 68.4446C125.635 68.9837 124.609 69.2532 123.432 69.2532ZM123.441 67.2031C124.203 67.2031 124.835 67.0017 125.335 66.5987C125.836 66.1958 126.207 65.6594 126.446 64.9897C126.691 64.32 126.814 63.5821 126.814 62.7763C126.814 61.9759 126.691 61.2408 126.446 60.571C126.207 59.8958 125.836 59.354 125.335 58.9457C124.835 58.5373 124.203 58.3331 123.441 58.3331C122.673 58.3331 122.036 58.5373 121.529 58.9457C121.028 59.354 120.655 59.8958 120.41 60.571C120.171 61.2408 120.051 61.9759 120.051 62.7763C120.051 63.5821 120.171 64.32 120.41 64.9897C120.655 65.6594 121.028 66.1958 121.529 66.5987C122.036 67.0017 122.673 67.2031 123.441 67.2031Z" fill="white"/>
</svg>
